<svg width="23" height="23" viewBox="0 0 23 23" fill="none" xmlns="http://www.w3.org/2000/svg">
<path d="M2.49805 16.2402H7.49512C7.95874 16.2402 8.40357 16.4242 8.73145 16.752C9.05928 17.0798 9.24311 17.5247 9.24316 17.9883V20.4873C9.24304 20.9507 9.05912 21.3949 8.73145 21.7227C8.40356 22.0505 7.95883 22.2354 7.49512 22.2354H2.49805C2.03447 22.2353 1.58952 22.0505 1.26172 21.7227C0.934198 21.3949 0.75012 20.9506 0.75 20.4873V17.9883C0.750057 17.5247 0.933912 17.0798 1.26172 16.752C1.58952 16.4242 2.03447 16.2403 2.49805 16.2402ZM19.9873 11.2432C20.4284 11.243 20.8533 11.4101 21.1768 11.71C21.4975 12.0074 21.6939 12.414 21.7295 12.8496L21.7354 12.9922V20.4873C21.7354 20.9283 21.5694 21.3534 21.2695 21.6768C20.9718 21.9978 20.5642 22.1943 20.1279 22.2295L19.9619 22.2354H14.9902C14.5491 22.2355 14.1242 22.0685 13.8008 21.7686C13.4796 21.4707 13.2822 21.0633 13.2471 20.627L13.2422 20.4873V12.9912C13.2421 12.5502 13.4082 12.1251 13.708 11.8018C13.9705 11.5187 14.3187 11.332 14.6963 11.2676L14.8594 11.248L15.0156 11.2432H19.9873ZM2.49805 1.25H7.49512C7.95872 1.25 8.40358 1.43399 8.73145 1.76172C9.05926 2.08953 9.24308 2.53447 9.24316 2.99805V10.4932C9.24316 10.9568 9.05931 11.4016 8.73145 11.7295C8.40356 12.0574 7.95883 12.2422 7.49512 12.2422H2.49805C2.03447 12.2421 1.58952 12.0573 1.26172 11.7295C0.934009 11.4016 0.75 10.9567 0.75 10.4932V2.99805C0.750082 2.53447 0.933904 2.08953 1.26172 1.76172C1.58952 1.43392 2.03447 1.2501 2.49805 1.25ZM14.9902 1.25H19.9873C20.4509 1.25 20.8958 1.43395 21.2236 1.76172C21.5514 2.08953 21.7353 2.53447 21.7354 2.99805V5.49707C21.7353 5.96063 21.5514 6.4056 21.2236 6.7334C20.8958 7.06115 20.4509 7.24512 19.9873 7.24512H14.9902C14.5266 7.24505 14.0817 7.06117 13.7539 6.7334C13.4261 6.4056 13.2423 5.96063 13.2422 5.49707V2.99805C13.2423 2.53447 13.4261 2.08953 13.7539 1.76172C14.0817 1.43393 14.5266 1.25006 14.9902 1.25Z" fill="white" stroke="#111111" stroke-width="1.5"/>
</svg>
