<svg width="23" height="24" viewBox="0 0 23 24" fill="none" xmlns="http://www.w3.org/2000/svg">
<path d="M6.38867 14.0273H16.6113C18.1068 14.0274 19.5412 14.6222 20.5986 15.6797C21.656 16.7372 22.25 18.1716 22.25 19.667C22.2499 20.4846 21.9248 21.2685 21.3467 21.8467C20.7685 22.4248 19.9846 22.7499 19.167 22.75H3.83301C3.01537 22.7499 2.23148 22.4248 1.65332 21.8467C1.07516 21.2685 0.750086 20.4846 0.75 19.667C0.75 18.1716 1.34404 16.7372 2.40137 15.6797C3.45881 14.6222 4.89322 14.0274 6.38867 14.0273ZM11.5 1.25C12.6566 1.25 13.7661 1.70948 14.584 2.52734C15.4018 3.3452 15.8613 4.45474 15.8613 5.61133C15.8613 6.76789 15.4018 7.8775 14.584 8.69531C13.7661 9.51311 12.6566 9.97266 11.5 9.97266C10.3434 9.97266 9.23387 9.51311 8.41602 8.69531C7.5982 7.8775 7.13873 6.76789 7.13867 5.61133C7.13867 4.45474 7.59822 3.3452 8.41602 2.52734C9.23388 1.70948 10.3434 1.25 11.5 1.25Z" fill="#111111" stroke="#111111" stroke-width="1.5"/>
</svg>
